<mxfile host="app.diagrams.net" modified="2022-05-16T10:27:14.844Z" agent="5.0 (Windows NT 10.0; Win64; x64) AppleWebKit/537.36 (KHTML, like Gecko) Chrome/101.0.4951.64 Safari/537.36 Edg/101.0.1210.47" etag="I9hkm8Gaz4JkTidRxPMO" version="18.0.5" type="github">
  <diagram id="lRdz6B_PQQY3EW0uKnCS" name="Page-1">
    <mxGraphModel dx="851" dy="768" grid="1" gridSize="10" guides="1" tooltips="1" connect="1" arrows="1" fold="1" page="1" pageScale="1" pageWidth="827" pageHeight="1169" math="0" shadow="0">
      <root>
        <mxCell id="0" />
        <mxCell id="1" parent="0" />
        <mxCell id="qdEcB032VrxJE9wXyrI7-6" style="edgeStyle=orthogonalEdgeStyle;rounded=0;orthogonalLoop=1;jettySize=auto;html=1;entryX=0.5;entryY=0;entryDx=0;entryDy=0;" edge="1" parent="1" source="qdEcB032VrxJE9wXyrI7-1" target="qdEcB032VrxJE9wXyrI7-2">
          <mxGeometry relative="1" as="geometry" />
        </mxCell>
        <mxCell id="qdEcB032VrxJE9wXyrI7-1" value="读请求" style="rounded=0;whiteSpace=wrap;html=1;" vertex="1" parent="1">
          <mxGeometry x="160" y="120" width="120" height="40" as="geometry" />
        </mxCell>
        <mxCell id="qdEcB032VrxJE9wXyrI7-7" style="edgeStyle=orthogonalEdgeStyle;rounded=0;orthogonalLoop=1;jettySize=auto;html=1;entryX=0.5;entryY=0;entryDx=0;entryDy=0;" edge="1" parent="1" source="qdEcB032VrxJE9wXyrI7-2" target="qdEcB032VrxJE9wXyrI7-3">
          <mxGeometry relative="1" as="geometry" />
        </mxCell>
        <mxCell id="qdEcB032VrxJE9wXyrI7-2" value="Hash映射，获取相应的Set" style="rounded=0;whiteSpace=wrap;html=1;" vertex="1" parent="1">
          <mxGeometry x="160" y="200" width="120" height="40" as="geometry" />
        </mxCell>
        <mxCell id="qdEcB032VrxJE9wXyrI7-8" style="edgeStyle=orthogonalEdgeStyle;rounded=0;orthogonalLoop=1;jettySize=auto;html=1;entryX=0.5;entryY=0;entryDx=0;entryDy=0;" edge="1" parent="1" source="qdEcB032VrxJE9wXyrI7-3" target="qdEcB032VrxJE9wXyrI7-4">
          <mxGeometry relative="1" as="geometry" />
        </mxCell>
        <mxCell id="qdEcB032VrxJE9wXyrI7-9" style="edgeStyle=orthogonalEdgeStyle;rounded=0;orthogonalLoop=1;jettySize=auto;html=1;entryX=0.5;entryY=0;entryDx=0;entryDy=0;" edge="1" parent="1" source="qdEcB032VrxJE9wXyrI7-3" target="qdEcB032VrxJE9wXyrI7-5">
          <mxGeometry relative="1" as="geometry" />
        </mxCell>
        <mxCell id="qdEcB032VrxJE9wXyrI7-3" value="根据LBA及状态位，&lt;br&gt;检查Cache是否命中" style="rhombus;whiteSpace=wrap;html=1;" vertex="1" parent="1">
          <mxGeometry x="160" y="280" width="120" height="80" as="geometry" />
        </mxCell>
        <mxCell id="qdEcB032VrxJE9wXyrI7-4" value="从SSD中读取数据" style="rounded=0;whiteSpace=wrap;html=1;" vertex="1" parent="1">
          <mxGeometry x="160" y="400" width="120" height="40" as="geometry" />
        </mxCell>
        <mxCell id="qdEcB032VrxJE9wXyrI7-5" value="从HDD中读取数据" style="rounded=0;whiteSpace=wrap;html=1;" vertex="1" parent="1">
          <mxGeometry x="360" y="400" width="120" height="40" as="geometry" />
        </mxCell>
        <mxCell id="qdEcB032VrxJE9wXyrI7-10" value="Y" style="text;html=1;strokeColor=none;fillColor=none;align=center;verticalAlign=middle;whiteSpace=wrap;rounded=0;" vertex="1" parent="1">
          <mxGeometry x="230" y="360" width="60" height="30" as="geometry" />
        </mxCell>
        <mxCell id="qdEcB032VrxJE9wXyrI7-11" value="N" style="text;html=1;strokeColor=none;fillColor=none;align=center;verticalAlign=middle;whiteSpace=wrap;rounded=0;" vertex="1" parent="1">
          <mxGeometry x="430" y="360" width="60" height="30" as="geometry" />
        </mxCell>
      </root>
    </mxGraphModel>
  </diagram>
</mxfile>
